<?xml version="1.0" encoding="UTF-8" standalone="no"?>
<svg
   xmlns:dc="http://purl.org/dc/elements/1.1/"
   xmlns:cc="http://creativecommons.org/ns#"
   xmlns:rdf="http://www.w3.org/1999/02/22-rdf-syntax-ns#"
   xmlns:svg="http://www.w3.org/2000/svg"
   xmlns="http://www.w3.org/2000/svg"
   xmlns:sodipodi="http://sodipodi.sourceforge.net/DTD/sodipodi-0.dtd"
   xmlns:inkscape="http://www.inkscape.org/namespaces/inkscape"
   id="svg"
   version="1.1"
   width="400"
   height="384.765625"
   viewBox="0, 0, 400,384.765625"
   sodipodi:docname="dark-binary-crystal-ball.svg"
   inkscape:version="0.92.4 (5da689c313, 2019-01-14)">
  <metadata
     id="metadata3731">
    <rdf:RDF>
      <cc:Work
         rdf:about="">
        <dc:format>image/svg+xml</dc:format>
        <dc:type
           rdf:resource="http://purl.org/dc/dcmitype/StillImage" />
        <dc:title></dc:title>
      </cc:Work>
    </rdf:RDF>
  </metadata>
  <defs
     id="defs3729">
    <clipPath
       clipPathUnits="userSpaceOnUse"
       id="clipPath3790">
      <ellipse
         id="ellipse3792"
         cx="198.5457"
         cy="105.36864"
         rx="198.36459"
         ry="105.03823"
         style="stroke-width:1.48064756" />
    </clipPath>
  </defs>
  <sodipodi:namedview
     pagecolor="#ffffff"
     bordercolor="#666666"
     borderopacity="1"
     objecttolerance="10"
     gridtolerance="10"
     guidetolerance="10"
     inkscape:pageopacity="0"
     inkscape:pageshadow="2"
     inkscape:window-width="1920"
     inkscape:window-height="1001"
     id="namedview3727"
     showgrid="false"
     inkscape:zoom="2.4417416"
     inkscape:cx="210.16766"
     inkscape:cy="199.26866"
     inkscape:window-x="-9"
     inkscape:window-y="-9"
     inkscape:window-maximized="1"
     inkscape:current-layer="svg" />
  <g
     id="svgg">
    <path
       id="path0"
       d="M261.405 28.636 C 261.405 28.717,262.203 30.753,263.178 33.160 C 264.153 35.567,265.271 38.343,265.661 39.330 L 266.371 41.124 261.001 45.430 C 258.047 47.798,255.630 49.802,255.630 49.883 C 255.630 50.055,255.806 49.988,262.634 47.198 C 265.533 46.013,268.054 45.043,268.237 45.043 C 268.419 45.043,270.441 47.391,272.729 50.261 C 275.018 53.131,276.959 55.412,277.041 55.330 C 277.124 55.247,276.065 52.445,274.688 49.103 C 273.311 45.760,272.185 42.977,272.185 42.918 C 272.185 42.859,274.606 40.855,277.566 38.465 C 280.526 36.074,282.897 34.068,282.835 34.006 C 282.773 33.944,279.985 35.016,276.638 36.388 C 273.292 37.761,270.412 38.884,270.238 38.884 C 270.064 38.884,268.072 36.545,265.811 33.686 C 262.063 28.947,261.405 28.193,261.405 28.636 M196.150 42.208 C 173.533 43.224,152.570 49.901,134.835 61.736 C 71.670 103.891,62.702 191.745,116.076 245.514 L 121.129 250.605 119.011 251.674 C 113.493 254.458,110.958 258.237,110.464 264.415 C 110.287 266.622,110.091 268.472,110.028 268.527 C 109.965 268.582,109.020 269.076,107.928 269.624 C 99.266 273.975,94.079 287.343,95.228 302.361 C 96.329 316.748,125.605 328.883,168.624 332.784 C 185.070 334.275,212.812 334.579,226.372 333.416 C 270.223 329.656,295.908 321.229,305.033 307.609 L 306.449 305.496 306.449 299.081 C 306.449 283.061,302.360 273.688,293.492 269.379 C 291.654 268.486,291.650 268.475,291.254 263.367 C 290.820 257.779,287.207 253.237,281.424 251.011 C 280.683 250.726,280.007 250.438,279.922 250.372 C 279.837 250.305,281.742 248.292,284.157 245.898 C 337.591 192.906,329.234 104.585,266.795 62.416 C 246.131 48.461,220.454 41.115,196.150 42.208 M216.939 51.557 C 306.824 65.879,342.810 175.302,278.745 239.488 C 261.911 256.354,251.639 261.149,225.217 264.475 C 197.202 268.001,155.987 263.931,143.169 256.374 C 93.255 226.943,74.846 161.373,102.032 109.848 C 119.903 75.979,150.927 55.329,190.953 50.663 C 194.924 50.200,212.140 50.792,216.939 51.557 M217.934 60.976 C 218.022 61.058,219.740 61.679,221.752 62.355 C 231.045 65.482,241.139 70.780,249.317 76.822 L 252.050 78.842 253.840 77.312 C 254.825 76.471,255.630 75.652,255.630 75.493 C 255.630 74.321,240.648 67.113,232.855 64.535 C 226.926 62.575,217.140 60.240,217.934 60.976 M261.730 82.998 C 260.598 83.992,259.601 84.867,259.513 84.943 C 259.425 85.019,260.468 86.250,261.831 87.680 C 263.193 89.109,265.048 91.134,265.951 92.179 L 267.594 94.078 270.082 91.612 C 273.148 88.574,273.314 89.267,268.501 85.017 C 263.542 80.638,264.195 80.832,261.730 82.998 M276.802 98.404 C 275.427 99.590,274.070 100.781,273.787 101.050 C 273.360 101.456,273.501 101.861,274.611 103.416 C 298.923 137.484,301.190 188.470,279.954 223.580 C 276.789 228.813,278.507 227.092,283.860 219.666 C 307.263 187.199,308.704 141.815,287.421 107.484 C 285.500 104.386,279.692 96.246,279.402 96.246 C 279.347 96.246,278.177 97.217,276.802 98.404 M112.110 112.125 C 90.779 150.710,98.122 203.166,128.937 232.321 L 130.139 233.459 130.964 232.633 C 131.695 231.902,131.727 231.723,131.246 231.074 C 130.947 230.670,129.205 228.359,127.374 225.938 C 102.480 193.008,96.583 144.213,113.452 110.741 C 115.113 107.444,114.146 108.441,112.110 112.125 M317.250 220.982 C 317.696 222.146,318.826 224.970,319.762 227.256 C 321.944 232.588,322.258 231.763,316.233 236.536 C 313.357 238.815,311.069 240.745,311.149 240.825 C 311.230 240.906,313.973 239.856,317.245 238.493 C 320.518 237.130,323.369 236.017,323.580 236.020 C 323.792 236.022,325.784 238.353,328.008 241.199 C 330.231 244.044,332.176 246.376,332.329 246.382 C 332.649 246.392,332.656 246.412,329.775 239.482 C 328.591 236.635,327.623 234.177,327.623 234.020 C 327.623 233.862,329.966 231.880,332.831 229.614 C 335.695 227.349,337.965 225.421,337.876 225.332 C 337.786 225.242,335.119 226.219,331.948 227.502 C 324.779 230.405,325.772 230.625,321.463 225.178 C 319.451 222.635,317.498 220.174,317.123 219.709 C 316.534 218.981,316.552 219.158,317.250 220.982 M67.723 223.003 C 67.905 223.479,69.037 226.265,70.238 229.193 C 71.439 232.121,72.368 234.657,72.303 234.829 C 72.205 235.087,68.099 238.443,62.979 242.450 C 61.087 243.931,61.984 243.726,67.763 241.356 C 70.830 240.098,73.623 238.979,73.969 238.868 C 74.423 238.723,75.794 240.165,78.913 244.069 C 83.595 249.931,83.857 250.188,82.939 248.027 C 81.026 243.526,78.540 237.073,78.561 236.664 C 78.575 236.402,81.000 234.295,83.951 231.981 C 86.902 229.667,89.317 227.720,89.317 227.656 C 89.317 227.519,87.502 228.229,80.974 230.919 L 76.289 232.849 71.993 227.493 C 67.543 221.945,67.167 221.550,67.723 223.003 M156.467 244.627 C 138.537 252.434,178.963 261.714,217.922 258.734 C 244.598 256.694,258.123 250.821,248.777 245.336 L 247.120 244.364 247.376 245.380 C 250.271 256.915,170.539 259.274,158.518 248.009 C 157.396 246.957,157.118 245.346,157.921 244.543 C 158.518 243.946,157.957 243.978,156.467 244.627 M138.402 265.450 C 177.953 280.765,237.350 278.978,272.631 261.412 L 276.509 259.481 278.438 260.531 C 280.954 261.900,281.290 262.516,281.604 266.341 C 282.124 272.668,283.478 275.311,287.148 277.164 C 294.315 280.782,296.226 284.718,296.712 296.864 L 296.936 302.486 294.647 304.756 C 268.156 331.017,133.331 330.805,106.930 304.460 L 105.101 302.635 105.101 298.218 C 105.101 286.008,107.180 281.234,114.148 277.447 C 118.620 275.016,119.385 273.656,120.136 266.795 C 120.591 262.636,121.064 261.745,123.506 260.440 L 125.163 259.554 129.665 261.682 C 132.142 262.853,136.073 264.548,138.402 265.450 M123.168 276.473 C 122.045 278.675,122.190 278.819,127.692 280.959 C 165.972 295.849,230.823 296.534,270.666 282.471 C 274.971 280.952,280.269 278.779,280.269 278.533 C 280.269 278.483,279.915 277.642,279.482 276.663 L 278.695 274.884 277.269 275.491 C 237.459 292.448,163.516 292.739,126.564 276.083 L 123.965 274.912 123.168 276.473 M123.203 287.954 C 122.095 290.126,122.020 290.037,126.564 291.941 C 161.158 306.439,224.036 308.187,265.063 295.792 C 268.869 294.642,279.714 290.578,280.156 290.136 C 280.307 289.985,278.754 286.429,278.537 286.429 C 278.451 286.429,276.510 287.191,274.224 288.121 C 235.025 304.077,162.543 303.795,126.710 287.548 C 125.354 286.933,124.185 286.429,124.112 286.429 C 124.040 286.429,123.631 287.115,123.203 287.954 "
       stroke="none"
       fill="#ffffff"
       fill-rule="evenodd" />
    <path
       id="path1"
       d="M0.000 192.493 L 0.000 384.986 200.000 384.986 L 400.000 384.986 400.000 192.493 L 400.000 0.000 200.000 0.000 L 0.000 0.000 0.000 192.493 M265.811 33.686 C 268.072 36.545,270.064 38.884,270.238 38.884 C 270.412 38.884,273.292 37.761,276.638 36.388 C 279.985 35.016,282.773 33.944,282.835 34.006 C 282.897 34.068,280.526 36.074,277.566 38.465 C 274.606 40.855,272.185 42.859,272.185 42.918 C 272.185 42.977,273.311 45.760,274.688 49.103 C 276.065 52.445,277.124 55.247,277.041 55.330 C 276.959 55.412,275.018 53.131,272.729 50.261 C 270.441 47.391,268.419 45.043,268.237 45.043 C 268.054 45.043,265.533 46.013,262.634 47.198 C 255.806 49.988,255.630 50.055,255.630 49.883 C 255.630 49.802,258.047 47.798,261.001 45.430 L 266.371 41.124 265.661 39.330 C 265.271 38.343,264.153 35.567,263.178 33.160 C 260.719 27.090,260.571 27.060,265.811 33.686 M212.251 42.766 C 231.421 44.513,250.422 51.359,266.795 62.416 C 329.234 104.585,337.591 192.906,284.157 245.898 C 281.742 248.292,279.837 250.305,279.922 250.372 C 280.007 250.438,280.683 250.726,281.424 251.011 C 287.207 253.237,290.820 257.779,291.254 263.367 C 291.650 268.475,291.654 268.486,293.492 269.379 C 302.360 273.688,306.449 283.061,306.449 299.081 L 306.449 305.496 305.033 307.609 C 295.908 321.229,270.223 329.656,226.372 333.416 C 212.812 334.579,185.070 334.275,168.624 332.784 C 125.605 328.883,96.329 316.748,95.228 302.361 C 94.079 287.343,99.266 273.975,107.928 269.624 C 109.020 269.076,109.965 268.582,110.028 268.527 C 110.091 268.472,110.287 266.622,110.464 264.415 C 110.958 258.237,113.493 254.458,119.011 251.674 L 121.129 250.605 116.076 245.514 C 62.702 191.745,71.670 103.891,134.835 61.736 C 157.175 46.828,184.190 40.208,212.251 42.766 M190.953 50.663 C 150.927 55.329,119.903 75.979,102.032 109.848 C 74.846 161.373,93.255 226.943,143.169 256.374 C 155.987 263.931,197.202 268.001,225.217 264.475 C 251.639 261.149,261.911 256.354,278.745 239.488 C 342.810 175.302,306.824 65.879,216.939 51.557 C 212.140 50.792,194.924 50.200,190.953 50.663 M223.234 61.829 C 232.600 63.929,243.028 67.990,251.484 72.830 C 256.283 75.577,256.155 75.334,253.840 77.312 L 252.050 78.842 249.317 76.822 C 241.139 70.780,231.045 65.482,221.752 62.355 C 216.122 60.461,216.515 60.322,223.234 61.829 M268.501 85.017 C 273.314 89.267,273.148 88.574,270.082 91.612 L 267.594 94.078 265.951 92.179 C 265.048 91.134,263.193 89.109,261.831 87.680 C 260.468 86.250,259.425 85.019,259.513 84.943 C 259.601 84.867,260.598 83.992,261.730 82.998 C 264.195 80.832,263.542 80.638,268.501 85.017 M282.351 100.073 C 308.618 135.367,309.237 184.461,283.860 219.666 C 278.507 227.092,276.789 228.813,279.954 223.580 C 301.190 188.470,298.923 137.484,274.611 103.416 C 273.501 101.861,273.360 101.456,273.787 101.050 C 274.722 100.162,279.299 96.246,279.402 96.246 C 279.458 96.246,280.785 97.969,282.351 100.073 M113.452 110.741 C 104.080 129.336,101.439 157.774,106.840 181.911 C 110.327 197.487,117.510 212.889,127.374 225.938 C 129.205 228.359,130.947 230.670,131.246 231.074 C 131.727 231.723,131.695 231.902,130.964 232.633 L 130.139 233.459 128.937 232.321 C 98.122 203.166,90.779 150.710,112.110 112.125 C 114.146 108.441,115.113 107.444,113.452 110.741 M321.463 225.178 C 325.772 230.625,324.779 230.405,331.948 227.502 C 335.119 226.219,337.786 225.242,337.876 225.332 C 337.965 225.421,335.695 227.349,332.831 229.614 C 329.966 231.880,327.623 233.862,327.623 234.020 C 327.623 234.177,328.591 236.635,329.775 239.482 C 332.656 246.412,332.649 246.392,332.329 246.382 C 332.176 246.376,330.231 244.044,328.008 241.199 C 325.784 238.353,323.792 236.022,323.580 236.020 C 323.369 236.017,320.518 237.130,317.245 238.493 C 313.973 239.856,311.230 240.906,311.149 240.825 C 311.069 240.745,313.357 238.815,316.233 236.536 C 322.258 231.763,321.944 232.588,319.762 227.256 C 316.725 219.836,316.343 218.745,317.123 219.709 C 317.498 220.174,319.451 222.635,321.463 225.178 M71.993 227.493 L 76.289 232.849 80.974 230.919 C 87.502 228.229,89.317 227.519,89.317 227.656 C 89.317 227.720,86.902 229.667,83.951 231.981 C 81.000 234.295,78.575 236.402,78.561 236.664 C 78.540 237.073,81.026 243.526,82.939 248.027 C 83.857 250.188,83.595 249.931,78.913 244.069 C 75.794 240.165,74.423 238.723,73.969 238.868 C 73.623 238.979,70.830 240.098,67.763 241.356 C 61.984 243.726,61.087 243.931,62.979 242.450 C 68.099 238.443,72.205 235.087,72.303 234.829 C 72.368 234.657,71.439 232.121,70.238 229.193 C 67.519 222.564,67.356 222.137,67.544 222.137 C 67.628 222.137,69.630 224.547,71.993 227.493 M157.921 244.543 C 157.118 245.346,157.396 246.957,158.518 248.009 C 170.539 259.274,250.271 256.915,247.376 245.380 L 247.120 244.364 248.777 245.336 C 253.862 248.320,251.949 251.874,243.863 254.464 C 213.519 264.184,141.009 257.674,153.868 246.384 C 155.654 244.816,159.308 243.156,157.921 244.543 M123.506 260.440 C 121.064 261.745,120.591 262.636,120.136 266.795 C 119.385 273.656,118.620 275.016,114.148 277.447 C 107.180 281.234,105.101 286.008,105.101 298.218 L 105.101 302.635 106.930 304.460 C 133.331 330.805,268.156 331.017,294.647 304.756 L 296.936 302.486 296.712 296.864 C 296.226 284.718,294.315 280.782,287.148 277.164 C 283.478 275.311,282.124 272.668,281.604 266.341 C 281.290 262.516,280.954 261.900,278.438 260.531 L 276.509 259.481 272.631 261.412 C 234.051 280.620,169.985 280.741,129.665 261.682 L 125.163 259.554 123.506 260.440 M134.552 279.092 C 175.002 292.881,240.311 291.234,277.269 275.491 L 278.695 274.884 279.482 276.663 C 279.915 277.642,280.269 278.483,280.269 278.533 C 280.269 278.779,274.971 280.952,270.666 282.471 C 230.823 296.534,165.972 295.849,127.692 280.959 C 122.190 278.819,122.045 278.675,123.168 276.473 L 123.965 274.912 126.564 276.083 C 127.993 276.727,131.588 278.081,134.552 279.092 M126.710 287.548 C 162.543 303.795,235.025 304.077,274.224 288.121 C 276.510 287.191,278.451 286.429,278.537 286.429 C 278.754 286.429,280.307 289.985,280.156 290.136 C 279.714 290.578,268.869 294.642,265.063 295.792 C 224.036 308.187,161.158 306.439,126.564 291.941 C 124.288 290.987,122.425 290.043,122.425 289.843 C 122.425 289.432,123.909 286.429,124.112 286.429 C 124.185 286.429,125.354 286.933,126.710 287.548 "
       stroke="none"
       fill="#000000"
       fill-rule="evenodd" />
  </g>
  <g
     id="svgg-6"
     transform="matrix(0.47411952,-0.01100885,0.03030804,0.88795928,101.00888,70.081341)"
     clip-path="url(#clipPath3790)">
    <path
       id="path0-0"
       d="m 365.88,3.573 c -8.81,1.104 -15.079,7.071 -18.058,17.19 -0.924,3.138 -1.091,14.966 -0.234,16.59 0.115,0.218 0.455,1.296 0.755,2.395 1.26,4.611 4.417,9.246 8.147,11.961 6.738,4.904 18.201,4.982 23.864,0.161 0.453,-0.385 1.231,-0.956 1.729,-1.269 0.497,-0.312 1.207,-1.009 1.577,-1.548 0.37,-0.538 1.015,-1.362 1.435,-1.83 1.884,-2.102 4.19,-7.894 4.61,-11.576 0.707,-6.206 0.707,-7.265 -0.007,-12.513 C 387.997,10.621 377.623,2.101 365.88,3.573 M 183.176,6.029 c -2.309,0.196 -5.897,0.762 -7.151,1.127 -0.752,0.219 -2.178,0.635 -3.169,0.925 -0.992,0.29 -2.576,0.909 -3.521,1.376 -0.945,0.466 -1.82,0.848 -1.946,0.848 -0.442,0 -3.196,1.737 -4.789,3.021 -0.886,0.715 -1.895,1.479 -2.242,1.698 -2.24,1.414 -6.175,6.177 -8.177,9.897 -1.604,2.981 -3.294,6.375 -3.509,7.045 -0.092,0.29 -0.415,1.189 -0.716,1.998 -3.545,9.528 -3.81,28.423 -0.54,38.486 1.434,4.41 2.66,7.094 5.405,11.827 1.176,2.026 1.939,3.033 4.783,6.312 0.536,0.618 4.278,3.74 5.548,4.629 1.959,1.372 2.495,1.684 4.671,2.72 3.074,1.463 3.607,1.666 5.994,2.29 1.157,0.303 2.751,0.723 3.544,0.934 1.226,0.327 2.909,0.553 6.866,0.921 6.312,0.586 17.432,-3.013 23.552,-7.623 2.602,-1.961 5.986,-5.191 7.161,-6.835 0.4,-0.56 1.037,-1.459 1.416,-1.998 0.378,-0.539 1.532,-2.652 2.564,-4.696 1.032,-2.043 1.967,-3.889 2.078,-4.1 5.174,-9.821 4.999,-35.801 -0.311,-46.232 -3.22,-6.324 -4.052,-7.807 -5.142,-9.159 -0.414,-0.514 -0.955,-1.271 -1.201,-1.682 -0.246,-0.411 -0.806,-1.068 -1.244,-1.46 -0.438,-0.392 -1.561,-1.428 -2.494,-2.302 -0.933,-0.875 -1.974,-1.73 -2.313,-1.902 -0.339,-0.171 -1.097,-0.74 -1.684,-1.265 -1.463,-1.307 -7.441,-4.227 -9.869,-4.821 -0.578,-0.141 -1.761,-0.482 -2.629,-0.757 -2.417,-0.767 -8.416,-1.437 -10.935,-1.222 m 65.307,2.026 c -0.174,0.266 -0.375,0.776 -0.447,1.132 -0.361,1.809 -3.638,4.062 -5.906,4.062 -1.204,0 -1.331,0.248 -1.331,2.594 0,2.721 -0.059,2.664 2.753,2.664 3.405,0 3.119,-0.705 3.185,7.842 0.048,6.045 0.103,7.135 0.371,7.304 0.431,0.272 6.653,0.262 7.165,-0.012 0.502,-0.269 0.652,-25.319 0.154,-25.818 -0.529,-0.529 -5.574,-0.332 -5.944,0.232 M 106.231,8.484 c -0.129,0.156 -0.385,0.984 -0.57,1.841 -0.775,3.592 -3.579,7.028 -6.502,7.967 -0.463,0.148 -0.951,0.356 -1.084,0.462 -0.556,0.439 -3.28,1.037 -5.499,1.208 -3.431,0.263 -3.196,-0.179 -3.196,6.001 0,3.669 0.07,5.148 0.252,5.33 0.184,0.185 1.846,0.253 6.164,0.253 4.401,0 6.001,0.067 6.264,0.263 0.324,0.241 0.357,1.547 0.408,15.867 0.045,12.468 0.111,15.66 0.329,15.878 0.4,0.399 15.668,0.399 16.067,0 0.436,-0.436 0.512,-53.576 0.078,-54.613 l -0.309,-0.739 h -6.083 c -4.836,0 -6.132,0.058 -6.319,0.282 m 219.471,0.961 c -2.065,0.138 -2.076,0.146 -2.581,1.844 -0.558,1.877 -2.348,3.135 -5.207,3.661 -2.438,0.449 -2.637,0.78 -2.405,4.012 0.139,1.951 0.114,1.935 3.432,2.064 2.21,0.085 2.886,0.18 3.041,0.425 0.115,0.182 0.2,3.382 0.202,7.582 0.002,5.367 0.069,7.332 0.256,7.518 0.361,0.361 6.898,0.352 7.369,-0.011 0.307,-0.235 0.352,-1.566 0.442,-12.986 0.105,-13.349 0.09,-13.809 -0.463,-13.961 -0.762,-0.208 -2.334,-0.265 -4.086,-0.148 m 45.678,5.774 c 3.381,1.634 4.885,6.076 4.88,14.411 -0.006,9.216 -2.101,13.835 -6.604,14.56 -5.459,0.879 -8.502,-3.567 -8.903,-13.009 -0.529,-12.423 3.97,-19.179 10.627,-15.962 M 21.666,21.931 c -0.348,0.176 -0.663,0.657 -0.946,1.444 -0.794,2.204 -2.402,3.315 -5.435,3.758 -1.797,0.262 -1.825,0.309 -1.825,2.959 0,2.765 -0.054,2.716 2.92,2.716 1.159,0 2.348,0.109 2.643,0.244 l 0.535,0.244 V 40.3 c 0,6.709 0.017,7.013 0.407,7.222 0.432,0.231 6.473,0.308 7.042,0.09 0.298,-0.115 0.333,-1.44 0.333,-12.808 V 22.123 l -0.663,-0.231 c -0.907,-0.316 -4.362,-0.289 -5.011,0.039 m 166.277,5.081 c 3.64,0.64 6.371,3.192 8.614,8.049 2.349,5.084 3.437,19.258 2.192,28.556 -0.108,0.81 -0.258,2.04 -0.332,2.734 -0.378,3.547 -1.746,7.132 -3.791,9.941 -0.612,0.841 -1.144,1.604 -1.182,1.696 -0.038,0.092 -0.606,0.561 -1.263,1.043 -5.447,3.996 -12.91,2.963 -16.761,-2.319 -3.56,-4.884 -4.662,-10.178 -4.673,-22.453 -0.011,-11.387 0.532,-15.016 3.019,-20.19 2.848,-5.922 7.491,-8.234 14.177,-7.057 M 38.589,34.369 c -6.381,1.069 -9.419,10.575 -5.482,17.156 2.429,4.062 7.091,5.328 11.432,3.106 4.123,-2.11 6.142,-8.646 4.325,-13.998 -0.61,-1.799 -2.407,-4.154 -3.949,-5.178 -0.978,-0.649 -4.008,-1.514 -4.747,-1.355 -0.058,0.012 -0.768,0.133 -1.579,0.269 m 239.656,0.701 c -0.329,0.266 -0.537,0.739 -0.656,1.493 -0.75,4.741 -5.432,8.33 -11.625,8.908 -1.591,0.149 -2.597,0.34 -2.786,0.53 -0.351,0.351 -0.434,9.187 -0.091,9.73 0.165,0.262 1.11,0.333 5.616,0.42 l 5.418,0.106 0.265,0.525 c 0.206,0.407 0.267,3.57 0.269,13.998 0.003,10.532 0.061,13.551 0.269,13.836 0.377,0.515 13.923,0.445 14.25,-0.073 0.4,-0.635 0.262,-49.114 -0.142,-49.449 -0.614,-0.51 -10.161,-0.532 -10.787,-0.024 M 42.064,39.435 c 2.528,2.288 2.125,10.373 -0.562,11.26 -2.837,0.936 -4.284,-0.979 -4.273,-5.659 0.008,-3.345 0.679,-5.384 1.95,-5.928 0.703,-0.3 2.405,-0.107 2.885,0.327 m 274.235,10.186 c -3.622,0.439 -7.711,2.149 -9.709,4.059 -0.154,0.148 -0.565,0.448 -0.912,0.666 -0.347,0.219 -0.82,0.634 -1.051,0.922 -0.232,0.289 -0.906,1.103 -1.499,1.808 -0.593,0.706 -1.386,1.895 -1.761,2.643 -0.375,0.747 -0.898,1.7 -1.161,2.118 -3.401,5.387 -3.363,21.442 0.066,27.543 0.293,0.52 0.675,1.23 0.849,1.577 2.103,4.185 7.663,8.759 11.526,9.483 0.447,0.083 1.103,0.273 1.458,0.421 2.988,1.247 10.729,0.48 13.892,-1.377 0.362,-0.212 0.945,-0.449 1.296,-0.526 0.586,-0.128 1.164,-0.564 4.111,-3.094 6.597,-5.664 9.145,-18.848 5.95,-30.786 -0.903,-3.375 -3.847,-8.21 -6.202,-10.188 -0.482,-0.405 -1.277,-1.082 -1.767,-1.503 -0.995,-0.857 -4.285,-2.577 -5.541,-2.897 -0.45,-0.114 -1.378,-0.35 -2.063,-0.523 -1.518,-0.383 -5.618,-0.573 -7.482,-0.346 M 58.27,54.02 c -0.116,0.216 -0.317,1.265 -0.446,2.332 -0.21,1.724 -0.481,2.73 -1.333,4.952 -0.47,1.224 -2.96,4.65 -4.182,5.755 -1.599,1.445 -3.204,2.611 -4.149,3.014 -0.521,0.223 -1.721,0.779 -2.667,1.236 -2.977,1.439 -6.621,2.223 -11.445,2.462 -2.096,0.104 -3.18,0.244 -3.417,0.44 -0.575,0.478 -0.524,17.848 0.055,18.563 l 0.402,0.496 10.409,0.06 c 9.287,0.054 10.44,0.097 10.692,0.401 0.231,0.279 0.301,5.108 0.387,26.964 l 0.105,26.624 13.355,0.055 c 9.635,0.04 13.516,-0.012 13.936,-0.185 l 0.582,-0.24 -0.056,-46.458 C 80.448,59.465 80.405,54.01 80.126,53.834 79.439,53.399 58.506,53.578 58.27,54.02 m 263.823,7.332 c 1.962,1.022 3.642,3.553 4.085,6.156 0.119,0.694 0.32,1.853 0.448,2.576 0.128,0.723 0.232,3.16 0.23,5.415 -0.009,10.683 -2.371,14.922 -8.186,14.689 -3.735,-0.15 -5.61,-2.247 -6.726,-7.521 -0.654,-3.091 -0.775,-10.841 -0.209,-13.372 0.181,-0.809 0.39,-1.85 0.465,-2.313 0.77,-4.74 5.945,-7.685 9.893,-5.63 m 59.295,7.288 c -2.648,0.602 -5.09,1.776 -6.148,2.957 -3.849,4.296 -4.72,6.743 -4.72,13.261 0,3.054 0.078,4.244 0.332,5.047 0.182,0.579 0.334,1.241 0.336,1.472 0.03,2.891 5.963,9.137 8.692,9.151 0.251,10e-4 0.93,0.148 1.508,0.326 2.929,0.903 7.676,-0.042 10.618,-2.114 5.882,-4.142 7.693,-15.747 3.69,-23.648 -2.449,-4.831 -8.812,-7.7 -14.308,-6.452 m 4.448,7.055 c 4.394,1.995 4.313,16.222 -0.103,18.136 -4.56,1.977 -7.189,-2.927 -6.391,-11.923 0.471,-5.317 3.045,-7.779 6.494,-6.213 m -275.005,1.091 c -5.007,0.8 -7.589,1.854 -10.473,4.274 -3.533,2.964 -6.538,7.472 -7.19,10.788 -0.131,0.667 -0.383,1.59 -0.56,2.051 -1.183,3.09 -1.183,14.369 0,17.458 0.176,0.462 0.428,1.384 0.559,2.049 0.487,2.473 3.732,7.903 5.744,9.611 3.631,3.083 5.177,3.922 9.081,4.929 5.347,1.379 11.479,0.533 16.068,-2.216 13.259,-7.942 14.798,-33.672 2.641,-44.176 -1.619,-1.399 -4.24,-3.11 -4.763,-3.11 -0.117,0 -0.511,-0.137 -0.876,-0.305 -2.432,-1.118 -7.505,-1.789 -10.231,-1.353 m 131.838,2.802 c -0.051,0.051 -0.699,0.191 -1.439,0.31 -2.331,0.375 -5.859,2.365 -6.896,3.889 -0.243,0.358 -0.806,1.171 -1.251,1.807 -3.936,5.63 -3.565,17.098 0.708,21.925 0.385,0.434 0.699,0.878 0.699,0.987 0,0.252 2.19,1.928 3.155,2.414 5.101,2.568 11.854,1.712 15.583,-1.976 4.276,-4.23 5.847,-11.839 3.903,-18.905 -0.767,-2.789 -2.84,-6.441 -4.1,-7.225 -0.308,-0.192 -0.986,-0.653 -1.506,-1.026 -2.153,-1.541 -8.05,-3.006 -8.856,-2.2 m 3.344,7.458 c 2.312,1.187 3.562,6.054 2.992,11.658 -0.867,8.521 -8.168,9.499 -9.538,1.278 -1.492,-8.959 1.762,-15.391 6.546,-12.936 M 116.02,88.254 c 3.45,1.638 4.787,5.646 4.793,14.375 0.007,10.599 -2.142,14.809 -7.564,14.819 -5.585,0.01 -7.836,-4.585 -7.617,-15.555 0.167,-8.372 1.079,-11.096 4.513,-13.471 1.099,-0.76 4.427,-0.855 5.875,-0.168 m 31.965,14.126 c -0.19,0.21 -0.457,0.706 -0.592,1.104 -0.737,2.16 -2.231,3.284 -5.017,3.773 -2.258,0.396 -2.313,0.468 -2.313,3.045 0,2.678 -0.053,2.632 3.027,2.632 3.31,0 3.072,-0.598 3.072,7.701 0,5.883 0.044,6.823 0.33,7.11 0.621,0.621 6.925,0.477 7.348,-0.168 0.484,-0.739 0.381,-25.065 -0.107,-25.373 -0.628,-0.397 -5.361,-0.252 -5.748,0.176 m 48.966,3.971 c -0.55,0.129 -0.947,0.655 -0.947,1.253 0,1.164 -1.518,4.311 -2.71,5.616 -1.424,1.561 -5.694,3.307 -9.067,3.709 -3.233,0.385 -2.944,-0.123 -2.944,5.174 0,5.973 -0.68,5.342 5.75,5.342 3.924,0 5.408,0.069 5.669,0.263 0.325,0.241 0.355,1.394 0.364,14.192 0.011,13.449 0.025,13.938 0.409,14.143 0.522,0.28 13.034,0.287 13.767,0.008 l 0.539,-0.205 V 131.23 106.614 l -0.539,-0.205 c -0.53,-0.201 -9.464,-0.252 -10.291,-0.058 m 137.767,2.009 c -0.17,0.607 -0.419,1.859 -0.553,2.782 -0.523,3.599 -3.408,8.331 -6.563,10.768 -4.588,3.542 -9.892,5.205 -18.033,5.654 -1.454,0.08 -2.48,0.229 -2.573,0.375 -0.281,0.439 -0.193,18.738 0.091,19.022 0.19,0.189 2.817,0.252 10.529,0.252 6.682,0 10.419,0.077 10.684,0.218 0.399,0.214 0.407,0.732 0.407,26.557 0,23.498 0.035,26.389 0.327,26.806 l 0.327,0.468 h 13.433 c 11.931,0 13.469,-0.037 13.763,-0.331 0.394,-0.394 0.518,-92.104 0.125,-93.136 l -0.205,-0.539 h -10.725 -10.724 l -0.31,1.104 m -310.202,6.324 c -0.209,0.153 -0.595,0.786 -0.858,1.407 -0.916,2.168 -3.682,3.993 -6.052,3.993 -0.994,0 -1.305,0.678 -1.306,2.849 -0.002,2.523 -0.04,2.488 2.945,2.619 3.357,0.147 3.072,-0.538 3.053,7.331 -0.015,6.509 0.05,7.21 0.709,7.65 0.408,0.272 6.533,0.19 6.814,-0.091 0.499,-0.499 0.349,-25.549 -0.154,-25.818 -0.611,-0.328 -4.687,-0.28 -5.151,0.06 m 234.933,4.766 c -3.111,0.56 -6.2,3.923 -6.854,7.464 -1.175,6.354 1.089,11.624 5.765,13.424 2.826,1.088 7.455,0.014 9.076,-2.105 2.327,-3.04 2.806,-4.419 2.806,-8.07 0,-7.187 -4.663,-11.815 -10.793,-10.713 m 3.554,5.277 c 2.084,1.957 2.031,8.967 -0.081,10.707 -2.078,1.714 -4.15,0.362 -4.67,-3.047 -0.92,-6.034 1.805,-10.429 4.751,-7.66 m 106.292,1.466 c -6.761,1.393 -9.666,10.987 -5.323,17.582 4.333,6.581 14.219,4.198 15.723,-3.789 0.646,-3.433 0.119,-7.824 -1.119,-9.318 -0.304,-0.367 -0.81,-1.05 -1.124,-1.518 -1.499,-2.23 -5.191,-3.568 -8.157,-2.957 m 3.699,5.475 c 1.325,1.245 1.734,6.987 0.658,9.238 -1.169,2.447 -3.926,2.623 -5.225,0.333 -0.682,-1.201 -0.855,-6.179 -0.28,-8.008 0.787,-2.5 3.067,-3.235 4.847,-1.563 m -204.645,5.371 c -8.701,1.118 -13.36,8.17 -12.361,18.709 0.819,8.642 5.143,13.361 12.93,14.112 5.615,0.541 12.441,-4.255 13.423,-9.43 0.107,-0.567 0.291,-1.21 0.409,-1.431 0.398,-0.743 0.667,-5.436 0.459,-8 -0.366,-4.51 -1.513,-7.191 -4.426,-10.344 -2.24,-2.426 -6.963,-4.063 -10.434,-3.616 m 68.279,3.894 c -1.869,0.196 -6.276,1.291 -6.634,1.649 -0.118,0.118 -0.372,0.215 -0.564,0.215 -0.577,0 -2.726,1.225 -4.404,2.509 -0.867,0.665 -1.785,1.319 -2.039,1.454 -0.254,0.135 -0.908,0.837 -1.452,1.559 -0.545,0.722 -1.34,1.692 -1.768,2.154 -1.921,2.078 -4.733,8.8 -5.498,13.144 -0.369,2.095 -0.371,13.62 -0.004,15.563 0.362,1.908 1.659,6.246 2.17,7.255 2.79,5.51 5.277,8.802 7.944,10.513 0.414,0.266 0.942,0.662 1.173,0.88 0.559,0.527 2.316,1.541 2.669,1.541 0.155,0 0.641,0.193 1.081,0.428 0.698,0.374 2.689,0.994 5.503,1.713 1.098,0.28 7.299,0.28 8.518,0 6.361,-1.463 10.719,-3.836 13.711,-7.465 0.495,-0.6 0.951,-1.138 1.014,-1.195 0.407,-0.372 1.764,-2.496 2.621,-4.101 1.584,-2.967 1.712,-3.267 2.1,-4.942 0.201,-0.868 0.538,-2.193 0.75,-2.945 1.146,-4.065 1.085,-15.539 -0.103,-19.473 -0.171,-0.567 -0.509,-1.836 -0.752,-2.819 -0.242,-0.983 -0.688,-2.214 -0.99,-2.734 -0.302,-0.521 -0.982,-1.766 -1.512,-2.768 -0.529,-1.001 -1.342,-2.231 -1.807,-2.734 -0.465,-0.502 -1.14,-1.318 -1.5,-1.815 -1.234,-1.699 -5.593,-4.795 -8.107,-5.757 -2.882,-1.102 -8.208,-2.187 -10.022,-2.04 -0.19,0.015 -1.134,0.11 -2.098,0.211 m -65.429,3.342 c 2.552,1.302 3.538,5.078 3.083,11.809 -0.318,4.713 -1.713,6.587 -4.902,6.587 -2.099,0 -2.471,-0.264 -3.581,-2.538 -1.638,-3.355 -1.544,-11.345 0.163,-13.793 0.214,-0.307 0.392,-0.638 0.396,-0.736 0.052,-1.327 3.169,-2.183 4.841,-1.329 m 142.115,7.256 c -3.121,0.855 -5.957,4.039 -6.603,7.416 -1.359,7.103 1.721,12.88 7.343,13.775 4.611,0.734 8.834,-2.224 9.95,-6.969 1.142,-4.861 -0.452,-10.64 -3.49,-12.651 -0.437,-0.289 -1.038,-0.699 -1.336,-0.91 -1.217,-0.863 -3.984,-1.175 -5.864,-0.661 m -70.536,3.376 c 3.823,1.931 5.256,6.389 5.268,16.386 l 0.007,6.099 -0.693,2.812 c -1.861,7.556 -6.44,10.444 -12.037,7.593 -4.416,-2.249 -6.419,-12.357 -4.724,-23.844 1.246,-8.444 6.154,-12.089 12.179,-9.046 m -111.705,0.555 c -0.261,0.125 -0.474,0.284 -0.475,0.354 -0.05,5.175 -5.158,9.453 -12.035,10.081 -1.126,0.103 -2.191,0.306 -2.366,0.452 -0.457,0.378 -0.477,9.283 -0.022,9.661 0.203,0.169 1.922,0.268 5.476,0.315 4.605,0.062 5.224,0.111 5.591,0.443 0.402,0.364 0.413,0.728 0.413,14.011 0,13.357 0.009,13.646 0.421,14.058 0.402,0.402 0.699,0.42 6.782,0.418 7.061,-0.003 7.179,-0.016 7.503,-0.806 0.476,-1.163 0.198,-48.59 -0.288,-48.945 -0.514,-0.376 -10.231,-0.413 -11,-0.042 m -99.107,0.522 c -4.904,0.93 -8.75,4.551 -10.342,9.736 -1.818,5.92 -0.603,14.487 2.55,17.981 0.417,0.463 0.898,1.033 1.068,1.268 2.791,3.843 11.685,4.862 16.408,1.881 7.473,-4.718 9.014,-19.195 2.831,-26.595 -2.871,-3.437 -7.886,-5.148 -12.515,-4.271 m 284.731,0.328 c 2.217,1.145 2.731,9.015 0.713,10.919 -2.062,1.946 -4.585,0.582 -5.105,-2.762 -0.87,-5.591 1.355,-9.724 4.392,-8.157 m -280.56,6.889 c 4.115,1.771 4.681,13.481 0.853,17.656 -0.912,0.995 -2.995,1.186 -4.389,0.403 -2.477,-1.392 -3.678,-7.132 -2.745,-13.121 0.651,-4.176 3.268,-6.234 6.281,-4.938 m 340.799,2.128 c -0.251,0.127 -0.693,0.774 -0.981,1.439 -1.039,2.396 -2.774,3.642 -5.533,3.974 -1.704,0.205 -1.64,0.107 -1.723,2.647 -0.092,2.803 -0.044,2.847 3.152,2.847 3.183,0 2.912,-0.712 2.912,7.649 0,5.154 0.067,7.054 0.253,7.24 0.266,0.266 6.544,0.375 7.196,0.125 0.52,-0.2 0.506,-25.334 -0.014,-25.767 -0.442,-0.367 -4.599,-0.488 -5.262,-0.154 M 86.54,168.583 c -0.231,0.058 -1.138,0.281 -2.016,0.496 -8.153,1.991 -12.463,11.942 -9.548,22.044 2.545,8.817 11.235,12.8 19.322,8.857 9.774,-4.766 10.128,-24.15 0.539,-29.575 -2.226,-1.26 -6.659,-2.233 -8.297,-1.822 m 198.949,3.963 c -0.578,0.154 -1.477,0.349 -1.998,0.435 -8.637,1.416 -13.13,15.017 -8.319,25.186 2.982,6.305 11.142,8.928 18.098,5.818 0.579,-0.258 1.099,-0.537 1.157,-0.619 0.058,-0.081 0.314,-0.259 0.57,-0.393 1.28,-0.674 4.678,-5.612 4.69,-6.816 0.002,-0.142 0.209,-0.873 0.46,-1.625 0.52,-1.555 0.677,-8.55 0.23,-10.2 -0.126,-0.462 -0.389,-1.447 -0.586,-2.188 -1.314,-4.946 -4.905,-8.196 -10.387,-9.399 -2.584,-0.567 -2.535,-0.565 -3.915,-0.199 m -105.247,2.627 -2.197,0.116 -0.376,1.278 c -0.608,2.067 -2.473,3.436 -5.322,3.903 -1.866,0.307 -2,0.498 -2,2.857 0,2.849 -0.057,2.793 2.847,2.793 3.532,0 3.252,-0.648 3.252,7.524 0,8.4 -0.398,7.618 3.87,7.618 4.415,0 3.911,1.715 3.911,-13.309 v -12.539 l -0.789,-0.219 c -0.433,-0.12 -0.835,-0.201 -0.893,-0.179 -0.058,0.022 -1.094,0.092 -2.303,0.157 m -91.127,0.54 c 2.884,0.857 4.919,8.078 3.638,12.906 -0.111,0.418 -0.254,1.096 -0.317,1.506 -0.063,0.409 -0.516,1.35 -1.007,2.09 -2.434,3.67 -6.253,2.862 -7.931,-1.679 -0.37,-0.999 -0.546,-8.12 -0.242,-9.751 0.46,-2.467 1.931,-4.557 3.562,-5.058 1.25,-0.385 1.05,-0.384 2.297,-0.014 m 200.19,4.431 c 2.147,1.603 3.247,7.804 2.312,13.024 -1.248,6.96 -7.76,7.168 -9.097,0.291 -1.1,-5.653 0.172,-12.506 2.517,-13.565 0.997,-0.45 3.529,-0.302 4.268,0.25"
       inkscape:connector-curvature="0"
       style="fill:#ffae00;fill-rule:evenodd;stroke:none" />
    <path
       id="path1-5"
       d="M 0,105.152 V 210.305 H 200 400 V 105.152 0 H 200 0 V 105.152 M 373.569,4.108 c 8.789,2.288 14.821,9.403 16.129,19.026 0.714,5.248 0.714,6.307 0.007,12.513 -0.42,3.682 -2.726,9.474 -4.61,11.576 -0.42,0.468 -1.065,1.292 -1.435,1.83 -0.37,0.539 -1.08,1.236 -1.577,1.548 -0.498,0.313 -1.276,0.884 -1.729,1.269 -3.923,3.339 -11.812,4.509 -18.16,2.694 -6.321,-1.808 -11.939,-7.818 -13.851,-14.816 -0.3,-1.099 -0.64,-2.177 -0.755,-2.395 -0.464,-0.879 -0.732,-7.715 -0.452,-11.53 C 348.267,10.39 360.163,0.617 373.569,4.108 M 190.116,6.439 c 1.33,0.172 3.128,0.537 3.995,0.812 0.868,0.275 2.051,0.616 2.629,0.757 2.428,0.594 8.406,3.514 9.869,4.821 0.587,0.525 1.345,1.094 1.684,1.265 0.339,0.172 1.38,1.027 2.313,1.902 0.933,0.874 2.056,1.91 2.494,2.302 0.438,0.392 0.998,1.049 1.244,1.46 0.246,0.411 0.787,1.168 1.201,1.682 1.09,1.352 1.922,2.835 5.142,9.159 5.31,10.431 5.485,36.411 0.311,46.232 -0.111,0.211 -1.046,2.057 -2.078,4.1 -1.032,2.044 -2.186,4.157 -2.564,4.696 -0.379,0.539 -1.016,1.438 -1.416,1.998 -4.668,6.533 -14.601,12.29 -23.878,13.84 -2.347,0.392 -5.854,0.709 -6.835,0.618 -3.957,-0.368 -5.64,-0.594 -6.866,-0.921 -0.793,-0.211 -2.387,-0.631 -3.544,-0.934 -2.387,-0.624 -2.92,-0.827 -5.994,-2.29 -2.176,-1.036 -2.712,-1.348 -4.671,-2.72 -1.27,-0.889 -5.012,-4.011 -5.548,-4.629 -2.844,-3.279 -3.607,-4.286 -4.783,-6.312 -2.745,-4.733 -3.971,-7.417 -5.405,-11.827 -3.27,-10.063 -3.005,-28.958 0.54,-38.486 0.301,-0.809 0.624,-1.708 0.716,-1.998 0.215,-0.67 1.905,-4.064 3.509,-7.045 2.002,-3.72 5.937,-8.483 8.177,-9.897 0.347,-0.219 1.356,-0.983 2.242,-1.698 1.593,-1.284 4.347,-3.021 4.789,-3.021 0.126,0 1.001,-0.382 1.946,-0.848 0.945,-0.467 2.529,-1.086 3.521,-1.376 0.991,-0.29 2.417,-0.706 3.169,-0.925 1.254,-0.365 4.842,-0.931 7.151,-1.127 1.349,-0.116 4.133,0.049 6.94,0.41 m 64.311,1.384 c 0.498,0.499 0.348,25.549 -0.154,25.818 -0.512,0.274 -6.734,0.284 -7.165,0.012 -0.268,-0.169 -0.323,-1.259 -0.371,-7.304 -0.066,-8.547 0.22,-7.842 -3.185,-7.842 -2.812,0 -2.753,0.057 -2.753,-2.664 0,-2.346 0.127,-2.594 1.331,-2.594 2.268,0 5.545,-2.253 5.906,-4.062 0.308,-1.54 0.472,-1.616 3.451,-1.616 1.81,0 2.77,0.082 2.94,0.252 M 118.942,8.941 c 0.434,1.037 0.358,54.177 -0.078,54.613 -0.399,0.399 -15.667,0.399 -16.067,0 -0.218,-0.218 -0.284,-3.41 -0.329,-15.878 -0.051,-14.32 -0.084,-15.626 -0.408,-15.867 -0.263,-0.196 -1.863,-0.263 -6.264,-0.263 -4.318,0 -5.98,-0.068 -6.164,-0.253 -0.182,-0.182 -0.252,-1.661 -0.252,-5.33 0,-6.18 -0.235,-5.738 3.196,-6.001 2.219,-0.171 4.943,-0.769 5.499,-1.208 0.133,-0.106 0.621,-0.314 1.084,-0.462 2.923,-0.939 5.727,-4.375 6.502,-7.967 0.495,-2.298 -0.072,-2.123 6.889,-2.123 h 6.083 l 0.309,0.739 m 210.846,0.652 c 0.553,0.152 0.568,0.612 0.463,13.961 -0.09,11.42 -0.135,12.751 -0.442,12.986 -0.471,0.363 -7.008,0.372 -7.369,0.011 -0.187,-0.186 -0.254,-2.151 -0.256,-7.518 -0.002,-4.2 -0.087,-7.4 -0.202,-7.582 -0.155,-0.245 -0.831,-0.34 -3.041,-0.425 -3.318,-0.129 -3.293,-0.113 -3.432,-2.064 -0.232,-3.232 -0.033,-3.563 2.405,-4.012 2.859,-0.526 4.649,-1.784 5.207,-3.661 0.178,-0.599 0.416,-1.231 0.528,-1.405 0.316,-0.489 4.661,-0.695 6.139,-0.291 m 37.384,5.133 c -4.523,0.754 -6.835,6.681 -6.419,16.455 0.401,9.442 3.444,13.888 8.903,13.009 4.503,-0.725 6.598,-5.344 6.604,-14.56 0.007,-11.056 -2.962,-15.925 -9.088,-14.904 m -340.495,7.166 0.663,0.231 v 12.681 c 0,11.368 -0.035,12.693 -0.333,12.808 -0.569,0.218 -6.61,0.141 -7.042,-0.09 -0.39,-0.209 -0.407,-0.513 -0.407,-7.222 v -7.004 l -0.535,-0.244 c -0.295,-0.135 -1.484,-0.244 -2.643,-0.244 -2.974,0 -2.92,0.049 -2.92,-2.716 0,-2.65 0.028,-2.697 1.825,-2.959 3.033,-0.443 4.641,-1.554 5.435,-3.758 0.283,-0.787 0.598,-1.268 0.946,-1.444 0.649,-0.328 4.104,-0.355 5.011,-0.039 M 181.8,27.036 c -5.717,0.961 -9.836,7.676 -10.83,17.654 -1.04,10.45 0.008,22.928 2.371,28.233 3.799,8.526 11.945,11.167 18.84,6.108 0.657,-0.482 1.225,-0.951 1.263,-1.043 0.038,-0.092 0.57,-0.855 1.182,-1.696 2.045,-2.809 3.413,-6.394 3.791,-9.941 0.074,-0.694 0.224,-1.924 0.332,-2.734 1.245,-9.298 0.157,-23.472 -2.192,-28.556 -3.201,-6.932 -7.466,-9.251 -14.757,-8.025 m -139.778,7.35 c 2.629,0.465 4.209,1.679 6.17,4.742 0.549,0.857 0.986,2.348 1.208,4.123 0.612,4.899 -1.4,9.609 -4.861,11.38 -4.341,2.222 -9.003,0.956 -11.432,-3.106 -3.937,-6.581 -0.899,-16.087 5.482,-17.156 0.811,-0.136 1.521,-0.257 1.579,-0.269 0.058,-0.013 0.892,0.116 1.854,0.286 m 247.01,0.708 c 0.404,0.335 0.542,48.814 0.142,49.449 -0.327,0.518 -13.873,0.588 -14.25,0.073 -0.208,-0.285 -0.266,-3.304 -0.269,-13.836 -0.002,-10.428 -0.063,-13.591 -0.269,-13.998 l -0.265,-0.525 -5.418,-0.106 c -4.506,-0.087 -5.451,-0.158 -5.616,-0.42 -0.343,-0.543 -0.26,-9.379 0.091,-9.73 0.189,-0.19 1.195,-0.381 2.786,-0.53 6.193,-0.578 10.875,-4.167 11.625,-8.908 0.299,-1.894 0.3,-1.894 6.117,-1.82 3.838,0.048 5.059,0.129 5.326,0.351 M 39.179,39.108 c -2.296,0.981 -2.758,9.857 -0.587,11.28 2.969,1.945 5.312,-0.852 5.118,-6.109 -0.149,-4.02 -2.076,-6.22 -4.531,-5.171 m 284.602,10.859 c 0.685,0.173 1.613,0.409 2.063,0.523 1.256,0.32 4.546,2.04 5.541,2.897 0.49,0.421 1.285,1.098 1.767,1.503 9.981,8.383 10.129,32.494 0.252,40.974 -2.947,2.53 -3.525,2.966 -4.111,3.094 -0.351,0.077 -0.934,0.314 -1.296,0.526 -3.163,1.857 -10.904,2.624 -13.892,1.377 -0.355,-0.148 -1.011,-0.338 -1.458,-0.421 -3.863,-0.724 -9.423,-5.298 -11.526,-9.483 -0.174,-0.347 -0.556,-1.057 -0.849,-1.577 -3.429,-6.101 -3.467,-22.156 -0.066,-27.543 0.263,-0.418 0.786,-1.371 1.161,-2.118 0.375,-0.748 1.168,-1.937 1.761,-2.643 0.593,-0.705 1.267,-1.519 1.499,-1.808 0.231,-0.288 0.704,-0.703 1.051,-0.922 0.347,-0.218 0.758,-0.518 0.912,-0.666 3.546,-3.39 11.587,-5.127 17.191,-3.713 M 80.126,53.834 c 0.279,0.176 0.322,5.631 0.372,46.657 l 0.056,46.458 -0.582,0.24 c -0.42,0.173 -4.301,0.225 -13.936,0.185 L 52.681,147.319 52.576,120.695 C 52.49,98.839 52.42,94.01 52.189,93.731 51.937,93.427 50.784,93.384 41.497,93.33 L 31.088,93.27 30.686,92.774 c -0.579,-0.715 -0.63,-18.085 -0.055,-18.563 0.237,-0.196 1.321,-0.336 3.417,-0.44 4.824,-0.239 8.468,-1.023 11.445,-2.462 0.946,-0.457 2.146,-1.013 2.667,-1.236 2.722,-1.162 7.234,-5.913 8.331,-8.769 0.852,-2.222 1.123,-3.228 1.333,-4.952 0.372,-3.059 -1.02,-2.725 11.321,-2.721 6.354,0.002 10.793,0.084 10.981,0.203 m 237.956,6.965 c -2.721,0.339 -5.388,3.143 -5.882,6.183 -0.075,0.463 -0.284,1.504 -0.465,2.313 -0.872,3.901 -0.215,13.779 1.106,16.631 2.677,5.778 9.539,5.933 12.485,0.282 0.458,-0.878 0.831,-2.38 1.301,-5.241 0.297,-1.798 0.296,-9.209 -0.001,-10.883 -0.128,-0.723 -0.329,-1.882 -0.448,-2.576 -0.77,-4.523 -4.02,-7.216 -8.096,-6.709 m 69.3,8.006 c 9.041,2.131 13.353,14.435 8.697,24.811 -2.473,5.511 -9.331,8.89 -14.691,7.238 -0.578,-0.178 -1.257,-0.325 -1.508,-0.326 -2.729,-0.014 -8.662,-6.26 -8.692,-9.151 -0.002,-0.231 -0.154,-0.893 -0.336,-1.472 -0.588,-1.862 -0.469,-8.521 0.198,-11.061 1.041,-3.97 3.63,-7.469 6.609,-8.929 3.366,-1.65 6.106,-1.963 9.723,-1.11 m -4.805,6.752 c -4.186,1.339 -4.754,15.731 -0.713,18.09 3.961,2.314 7.2,-1.638 7.2,-8.785 0,-7.023 -2.483,-10.585 -6.487,-9.305 m -266.804,1.292 c 2.22,0.34 4.357,0.862 5.289,1.29 0.365,0.168 0.759,0.305 0.876,0.305 0.523,0 3.144,1.711 4.763,3.11 6.323,5.463 8.998,14.28 7.887,25.994 -0.724,7.637 -4.867,14.792 -10.528,18.182 -4.589,2.749 -10.721,3.595 -16.068,2.216 -3.904,-1.007 -5.45,-1.846 -9.081,-4.929 -2.012,-1.708 -5.257,-7.138 -5.744,-9.611 -0.131,-0.665 -0.383,-1.587 -0.559,-2.049 -1.183,-3.089 -1.183,-14.368 0,-17.458 0.177,-0.461 0.429,-1.384 0.56,-2.051 0.263,-1.339 1.757,-4.503 2.9,-6.144 3.187,-4.575 7.155,-7.343 12.029,-8.393 3.757,-0.81 4.943,-0.881 7.676,-0.462 m 130.9,2.968 c 1.949,0.344 3.406,0.936 4.852,1.971 0.52,0.373 1.198,0.834 1.506,1.026 1.26,0.784 3.333,4.436 4.1,7.225 1.944,7.066 0.373,14.675 -3.903,18.905 -3.729,3.688 -10.482,4.544 -15.583,1.976 -0.965,-0.486 -3.155,-2.162 -3.155,-2.414 0,-0.109 -0.314,-0.553 -0.699,-0.987 -4.273,-4.827 -4.644,-16.295 -0.708,-21.925 0.445,-0.636 1.008,-1.449 1.251,-1.807 1.037,-1.524 4.565,-3.514 6.896,-3.889 0.74,-0.119 1.388,-0.259 1.439,-0.31 0.193,-0.193 2.298,-0.073 4.004,0.229 m -4.641,7.344 c -2.511,1.706 -3.551,6.903 -2.565,12.821 1.37,8.221 8.671,7.243 9.538,-1.278 0.57,-5.604 -0.68,-10.471 -2.992,-11.658 -1.166,-0.598 -3.01,-0.545 -3.981,0.115 m -130.52,0.746 c -1.699,0.359 -3.971,2.527 -4.677,4.464 -1.503,4.122 -1.719,13.917 -0.42,19.091 1.494,5.953 7.634,8.106 11.414,4.003 1.138,-1.236 1.938,-2.856 2.542,-5.148 0.674,-2.563 0.665,-12.839 -0.015,-15.364 -1.507,-5.597 -4.483,-7.967 -8.844,-7.046 m 42.221,14.297 c 0.488,0.308 0.591,24.634 0.107,25.373 -0.423,0.645 -6.727,0.789 -7.348,0.168 -0.286,-0.287 -0.33,-1.227 -0.33,-7.11 0,-8.299 0.238,-7.701 -3.072,-7.701 -3.08,0 -3.027,0.046 -3.027,-2.632 0,-2.577 0.055,-2.649 2.313,-3.045 2.786,-0.489 4.28,-1.613 5.017,-3.773 0.481,-1.412 0.656,-1.486 3.481,-1.483 1.399,0.002 2.685,0.093 2.859,0.203 m 53.509,4.205 0.539,0.205 v 24.616 24.616 l -0.539,0.205 c -0.733,0.279 -13.245,0.272 -13.767,-0.008 -0.384,-0.205 -0.398,-0.694 -0.409,-14.143 -0.009,-12.798 -0.039,-13.951 -0.364,-14.192 -0.261,-0.194 -1.745,-0.263 -5.669,-0.263 -6.43,0 -5.75,0.631 -5.75,-5.342 0,-5.297 -0.289,-4.789 2.944,-5.174 3.373,-0.402 7.643,-2.148 9.067,-3.709 1.192,-1.305 2.71,-4.452 2.71,-5.616 0,-0.598 0.397,-1.124 0.947,-1.253 0.827,-0.194 9.761,-0.143 10.291,0.058 m 149.44,1.386 c 0.393,1.032 0.269,92.742 -0.125,93.136 -0.294,0.294 -1.832,0.331 -13.763,0.331 h -13.433 l -0.327,-0.468 c -0.292,-0.417 -0.327,-3.308 -0.327,-26.806 0,-25.825 -0.008,-26.343 -0.407,-26.557 -0.265,-0.141 -4.002,-0.218 -10.684,-0.218 -7.712,0 -10.339,-0.063 -10.529,-0.252 -0.284,-0.284 -0.372,-18.583 -0.091,-19.022 0.093,-0.146 1.119,-0.295 2.573,-0.375 8.141,-0.449 13.445,-2.112 18.033,-5.654 3.155,-2.437 6.04,-7.169 6.563,-10.768 0.134,-0.923 0.383,-2.175 0.553,-2.782 l 0.31,-1.104 h 10.724 10.725 l 0.205,0.539 m -327.015,6.829 c 0.503,0.269 0.653,25.319 0.154,25.818 -0.281,0.281 -6.406,0.363 -6.814,0.091 -0.659,-0.44 -0.724,-1.141 -0.709,-7.65 0.019,-7.869 0.304,-7.184 -3.053,-7.331 -2.985,-0.131 -2.947,-0.096 -2.945,-2.619 10e-4,-2.171 0.312,-2.849 1.306,-2.849 2.37,0 5.136,-1.825 6.052,-3.993 0.263,-0.621 0.649,-1.254 0.858,-1.407 0.464,-0.34 4.54,-0.388 5.151,-0.06 m 235.212,5.493 c 5.276,2.692 7.237,11.254 3.763,16.431 -1.437,2.142 -1.795,2.474 -3.609,3.344 -7.538,3.615 -14.217,-3.355 -12.438,-12.978 1.086,-5.877 7.323,-9.328 12.284,-6.797 m -4.267,3.975 c -2.963,0.636 -3.619,9.858 -0.823,11.563 2.722,1.659 4.671,-0.722 4.656,-5.687 -0.014,-4.329 -1.368,-6.405 -3.833,-5.876 m 113.226,2.446 c 1.362,0.422 2.879,1.519 3.614,2.612 0.314,0.468 0.82,1.151 1.124,1.518 1.238,1.494 1.765,5.885 1.119,9.318 -1.817,9.651 -14.597,10.176 -17.232,0.708 -2.48,-8.906 3.661,-16.548 11.375,-14.156 m -3.557,4.351 c -3.021,0.889 -3.624,9.877 -0.776,11.559 2.642,1.56 4.688,-0.706 4.717,-5.224 0.03,-4.757 -1.415,-7.079 -3.941,-6.335 m -197.383,6.558 c 5.797,1.192 9.727,6.357 10.311,13.552 0.208,2.564 -0.061,7.257 -0.459,8 -0.118,0.221 -0.302,0.864 -0.409,1.431 -0.396,2.086 -3.131,5.895 -5.115,7.123 -8.322,5.152 -18.074,1.424 -20.577,-7.864 -2.816,-10.448 1.448,-20.428 9.492,-22.218 2.707,-0.603 3.925,-0.607 6.757,-0.024 m 68.259,3.461 c 6.144,0.63 13.067,3.987 15.698,7.611 0.36,0.497 1.035,1.313 1.5,1.815 0.465,0.503 1.278,1.733 1.807,2.734 0.53,1.002 1.21,2.247 1.512,2.768 0.302,0.52 0.748,1.751 0.99,2.734 0.243,0.983 0.581,2.252 0.752,2.819 1.188,3.934 1.249,15.408 0.103,19.473 -0.212,0.752 -0.549,2.077 -0.75,2.945 -0.388,1.675 -0.516,1.975 -2.1,4.942 -0.857,1.605 -2.214,3.729 -2.621,4.101 -0.063,0.057 -0.519,0.595 -1.014,1.195 -2.992,3.629 -7.35,6.002 -13.711,7.465 -1.219,0.28 -7.42,0.28 -8.518,0 -2.814,-0.719 -4.805,-1.339 -5.503,-1.713 -0.44,-0.235 -0.926,-0.428 -1.081,-0.428 -0.353,0 -2.11,-1.014 -2.669,-1.541 -0.231,-0.218 -0.759,-0.614 -1.173,-0.88 -2.667,-1.711 -5.154,-5.003 -7.944,-10.513 -0.511,-1.009 -1.808,-5.347 -2.17,-7.255 -0.367,-1.943 -0.365,-13.468 0.004,-15.563 0.765,-4.344 3.577,-11.066 5.498,-13.144 0.428,-0.462 1.223,-1.432 1.768,-2.154 0.544,-0.722 1.198,-1.424 1.452,-1.559 0.254,-0.135 1.172,-0.789 2.039,-1.454 1.678,-1.284 3.827,-2.509 4.404,-2.509 0.192,0 0.446,-0.097 0.564,-0.215 0.548,-0.548 5.469,-1.596 8.732,-1.86 0.191,-0.015 1.284,0.068 2.431,0.186 m -73.19,3.265 c -0.749,0.274 -1.593,1.025 -1.609,1.431 -0.004,0.098 -0.182,0.429 -0.396,0.736 -1.707,2.448 -1.801,10.438 -0.163,13.793 1.11,2.274 1.482,2.538 3.581,2.538 4.007,0 5.437,-3.429 4.907,-11.769 -0.339,-5.342 -2.841,-8.006 -6.32,-6.729 m 149.448,7.343 c 0.672,0.161 1.465,0.465 1.763,0.676 0.298,0.211 0.899,0.621 1.336,0.91 5.485,3.632 5.022,15.365 -0.732,18.548 -1.21,0.669 -1.696,0.843 -2.994,1.072 -5.851,1.03 -10.372,-3.64 -10.373,-10.716 -0.002,-7.049 5.088,-11.903 11,-10.49 m -80.636,2.815 c -4.635,1.296 -6.704,6.549 -6.705,17.028 -0.001,12.839 3.861,18.986 10.796,17.179 3.495,-0.91 5.201,-3.1 6.49,-8.334 l 0.693,-2.812 -0.007,-6.099 c -0.01,-8.097 -0.737,-11.538 -3.118,-14.745 -1.533,-2.066 -5.161,-3.053 -8.149,-2.217 m -94.706,1.173 c 0.486,0.355 0.764,47.782 0.288,48.945 -0.324,0.79 -0.442,0.803 -7.503,0.806 -6.083,0.002 -6.38,-0.016 -6.782,-0.418 -0.412,-0.412 -0.421,-0.701 -0.421,-14.058 0,-13.283 -0.011,-13.647 -0.413,-14.011 -0.367,-0.332 -0.986,-0.381 -5.591,-0.443 -3.554,-0.047 -5.273,-0.146 -5.476,-0.315 -0.455,-0.378 -0.435,-9.283 0.022,-9.661 0.175,-0.146 1.24,-0.349 2.366,-0.452 6.877,-0.628 11.985,-4.906 12.035,-10.081 0.006,-0.647 10.623,-0.936 11.475,-0.312 m -105.164,0.517 c 5.511,1.138 8.955,4.434 10.572,10.12 2.296,8.07 -0.276,17.202 -5.831,20.709 -4.723,2.981 -13.617,1.962 -16.408,-1.881 -0.17,-0.235 -0.651,-0.805 -1.068,-1.268 -3.153,-3.494 -4.368,-12.061 -2.55,-17.981 2.168,-7.062 8.525,-11.095 15.285,-9.699 m 277.115,0.452 c -2.948,1.798 -2.431,10.704 0.67,11.526 2.667,0.707 4.026,-1.517 3.884,-6.36 -0.136,-4.652 -1.975,-6.738 -4.554,-5.166 m -281.12,6.698 c -2.828,1.285 -4.11,7.054 -2.98,13.412 1.216,6.843 7.669,6.964 9.22,0.173 0.439,-1.925 0.361,-7.842 -0.126,-9.453 -1.108,-3.67 -3.528,-5.306 -6.114,-4.132 m 349.294,2.312 c 0.52,0.433 0.534,25.567 0.014,25.767 -0.652,0.25 -6.93,0.141 -7.196,-0.125 -0.186,-0.186 -0.253,-2.086 -0.253,-7.24 0,-8.361 0.271,-7.649 -2.912,-7.649 -3.196,0 -3.244,-0.044 -3.152,-2.847 0.083,-2.54 0.019,-2.442 1.723,-2.647 2.759,-0.332 4.494,-1.578 5.533,-3.974 0.288,-0.665 0.73,-1.312 0.981,-1.439 0.663,-0.334 4.82,-0.213 5.262,0.154 m -290.621,3.613 c 9.79,2.437 13.714,17.263 7.116,26.878 -5.455,7.948 -17.782,7.177 -22.31,-1.396 -5.353,-10.135 -1.174,-23.224 8.141,-25.499 0.878,-0.215 1.785,-0.438 2.016,-0.496 0.731,-0.183 3.284,0.077 5.037,0.513 m 197.827,3.649 c 5.482,1.203 9.073,4.453 10.387,9.399 0.197,0.741 0.46,1.726 0.586,2.188 0.447,1.65 0.29,8.645 -0.23,10.2 -0.251,0.752 -0.458,1.483 -0.46,1.625 -0.012,1.204 -3.41,6.142 -4.69,6.816 -0.256,0.134 -0.512,0.312 -0.57,0.393 -0.058,0.082 -0.578,0.361 -1.157,0.619 -4.167,1.863 -9.715,1.639 -13.512,-0.544 -7.156,-4.116 -8.764,-18.474 -2.933,-26.184 1.623,-2.147 4.352,-3.897 6.666,-4.276 0.521,-0.086 1.42,-0.281 1.998,-0.435 1.38,-0.366 1.331,-0.368 3.915,0.199 m -105.966,2.45 0.789,0.219 v 12.539 c 0,15.024 0.504,13.309 -3.911,13.309 -4.268,0 -3.87,0.782 -3.87,-7.618 0,-8.172 0.28,-7.524 -3.252,-7.524 -2.904,0 -2.847,0.056 -2.847,-2.793 0,-2.359 0.134,-2.55 2,-2.857 2.849,-0.467 4.714,-1.836 5.322,-3.903 l 0.376,-1.278 2.197,-0.116 c 1.209,-0.065 2.245,-0.135 2.303,-0.157 0.058,-0.022 0.46,0.059 0.893,0.179 m -96.62,0.532 c -1.631,0.501 -3.102,2.591 -3.562,5.058 -0.304,1.631 -0.128,8.752 0.242,9.751 1.678,4.541 5.497,5.349 7.931,1.679 0.491,-0.74 0.944,-1.681 1.007,-2.09 0.063,-0.41 0.206,-1.088 0.317,-1.506 1.281,-4.828 -0.754,-12.049 -3.638,-12.906 -1.247,-0.37 -1.047,-0.371 -2.297,0.014 m 198.219,4.167 c -2.345,1.059 -3.617,7.912 -2.517,13.565 1.337,6.877 7.849,6.669 9.097,-0.291 0.935,-5.22 -0.165,-11.421 -2.312,-13.024 -0.739,-0.552 -3.271,-0.7 -4.268,-0.25"
       inkscape:connector-curvature="0"
       style="fill:#000000;fill-rule:evenodd;stroke:none" />
  </g>
  <path
     style="fill:#ffae00;fill-opacity:1;stroke-width:0.47619507"
     d="m 192.1904,333.79684 c -34.07038,-0.83078 -61.95548,-5.82762 -79.46416,-14.23949 -9.02087,-4.33399 -13.77373,-8.29139 -16.124263,-13.42563 -1.149595,-2.51105 -1.183469,-2.86378 -0.942965,-9.81915 0.157422,-4.55263 0.542907,-8.26873 1.044778,-10.07171 2.014261,-7.23625 6.39159,-13.58063 11.25703,-16.31563 2.21847,-1.24706 2.25869,-1.31218 2.55877,-4.14245 0.74661,-7.04189 2.88073,-10.60446 8.16288,-13.6266 l 2.56295,-1.46638 -5.26132,-5.61403 c -10.57236,-11.2811 -16.381489,-19.50064 -22.398766,-31.69275 -5.868899,-11.89148 -9.69637,-24.68147 -11.471556,-38.33371 -0.961475,-7.39432 -0.717028,-22.86354 0.485357,-30.71458 2.005206,-13.09311 5.319115,-23.60525 11.269555,-35.74847 17.42103,-35.551549 52.26793,-60.339622 91.64076,-65.187954 6.89158,-0.848623 21.68498,-0.967586 28.48564,-0.229071 21.4092,2.32492 43.27888,11.502461 60.83998,25.5313 19.7147,15.749258 34.2267,38.332765 40.70817,63.349855 2.55083,9.84566 3.47742,17.72141 3.46215,29.42736 -0.0186,14.2581 -1.68406,24.81717 -5.9208,37.53808 -5.75269,17.27257 -14.79513,31.82496 -29.02225,46.7068 -2.41296,2.52399 -4.30322,4.66056 -4.20057,4.74793 0.10264,0.0874 1.36521,0.73938 2.8057,1.44892 4.92245,2.42464 7.64081,6.17405 8.31152,11.46402 0.69311,5.46664 0.58429,5.24232 3.24443,6.68848 5.03824,2.739 8.50195,7.60993 10.48179,14.7403 0.68263,2.45846 0.98969,5.48141 1.16992,11.51742 0.13439,4.50123 0.11677,8.67984 -0.0392,9.2858 -0.44133,1.71494 -4.04033,5.79371 -7.6511,8.67104 -11.70588,9.32814 -37.61318,16.14765 -71.47032,18.81292 -6.92345,0.54503 -25.43621,0.91897 -34.52414,0.69738 z m 26.90502,-9.70641 c 36.12359,-1.9134 62.89882,-8.39369 74.33432,-17.99082 l 3.28548,-2.75732 0.14404,-4.02686 c 0.17812,-4.9795 -0.60693,-11.17643 -1.83,-14.44538 -1.00148,-2.67668 -3.70974,-5.60403 -6.88555,-7.44255 -4.3733,-2.53176 -5.23818,-3.96956 -6.18607,-10.28397 -0.37786,-2.51712 -0.94768,-4.89067 -1.26627,-5.27455 -0.3186,-0.38388 -1.37793,-1.10541 -2.35406,-1.6034 l -1.77481,-0.90544 -5.81676,2.64089 c -13.77633,6.25464 -26.6012,9.76117 -44.50739,12.16905 -7.14919,0.96138 -10.07105,1.08868 -25.00024,1.08929 -14.86438,4.8e-4 -17.85229,-0.12818 -24.75338,-1.06693 -18.79318,-2.55643 -32.8287,-6.37773 -46.53705,-12.67013 -4.59081,-2.10728 -4.93521,-2.19313 -6.19166,-1.54339 -2.50415,1.29495 -3.09075,2.43242 -3.96995,7.69813 -0.46095,2.76078 -1.18727,5.55251 -1.61403,6.20382 -0.42676,0.65132 -2.54686,2.32666 -4.71133,3.72298 -6.60515,4.26104 -8.38968,8.43226 -8.40574,19.6479 l -0.008,5.77274 2.12908,1.96252 c 9.36009,8.62783 30.37247,14.8803 60.25248,17.92881 15.30911,1.56191 35.63238,2.02394 51.66716,1.17461 z m 5.00005,-59.2849 c 27.56235,-3.30097 38.62402,-8.54839 56.03105,-26.57991 14.40961,-14.92656 23.77084,-31.89713 28.41344,-51.50953 4.20262,-17.75369 3.52843,-39.07294 -1.79608,-56.79621 C 297.9404,100.61646 278.18693,76.505584 251.71479,62.751952 234.8759,54.00329 218.84708,50.333746 197.30636,50.296008 c -15.39224,-0.02696 -35.73381,5.575016 -51.54498,14.195272 -30.55939,16.66099 -51.597011,48.4176 -55.773872,84.1915 -0.910526,7.79846 -0.663329,21.38012 0.527563,28.9856 5.085735,32.47946 23.481299,60.81669 50.341109,77.54738 6.81321,4.24388 16.2806,6.86514 32.09765,8.88693 4.20802,0.53789 10.41842,1.16994 13.8009,1.40455 8.79077,0.60976 29.6658,0.21747 37.34074,-0.70171 z"
     id="path3794"
     inkscape:connector-curvature="0" />
  <path
     style="fill:#ffae00;fill-opacity:1;stroke-width:0.47619507"
     d="m 127.10981,230.15294 c -17.2155,-17.70762 -26.82506,-42.56506 -26.82506,-69.38948 0,-10.76306 1.65223,-21.98786 4.59112,-31.19078 1.079,-3.3788 5.49258,-14.12288 5.7116,-13.90386 0.10057,0.10056 -0.57252,2.48876 -1.49574,5.3071 -2.03108,6.20034 -3.81087,14.81132 -4.55961,22.06032 -0.85087,8.23778 -0.33126,27.05821 0.93143,33.73714 3.47295,18.36982 11.80158,36.67078 23.57928,51.81206 2.4139,3.1033 2.47459,3.25829 1.56979,4.00921 -0.48026,0.39859 -1.29064,-0.16631 -3.50281,-2.44171 z"
     id="path3796"
     inkscape:connector-curvature="0" />
  <path
     style="fill:#ffae00;fill-opacity:1;stroke-width:0.47619507"
     d="m 185.76177,258.34764 c -19.26731,-1.53241 -32.54364,-5.18336 -33.00128,-9.07525 -0.10684,-0.90853 0.29543,-1.60874 1.5642,-2.72274 2.06119,-1.80975 3.10347,-1.9278 3.10347,-0.3515 0,3.00524 7.09885,5.96841 18.32763,7.65026 22.05025,3.30267 57.77282,1.31505 67.81404,-3.77322 2.93818,-1.48889 3.8592,-2.41218 3.8592,-3.86873 0,-1.45161 0.24592,-1.44515 2.21698,0.0583 1.79916,1.37229 2.05929,2.88937 0.75924,4.42798 -2.78196,3.29246 -15.16488,6.37739 -30.83363,7.68152 -6.57597,0.54732 -26.79392,0.53144 -33.80985,-0.0266 z"
     id="path3798"
     inkscape:connector-curvature="0" />
  <path
     style="fill:#ffae00;fill-opacity:1;stroke-width:0.47619507"
     d="m 280.84658,222.78787 c 0.0898,-0.19643 1.3879,-2.82146 2.88468,-5.83339 4.60773,-9.27201 7.35473,-17.91788 9.49031,-29.8696 0.95861,-5.36488 1.08505,-7.60121 1.07081,-18.9404 -0.0148,-11.77115 -0.12186,-13.44055 -1.26761,-19.76209 -2.92423,-16.13406 -8.66201,-30.85056 -16.72202,-42.88931 l -2.68668,-4.01294 1.78758,-1.56352 c 0.98316,-0.859939 2.29821,-1.921789 2.92233,-2.359666 1.09764,-0.770104 1.17259,-0.750165 2.29161,0.609648 2.61564,3.178458 7.93791,11.658208 10.56581,16.834058 6.89131,13.57296 10.3362,27.10859 10.85914,42.66753 0.72874,21.68238 -4.98351,41.78893 -16.94464,59.64343 -2.14935,3.20837 -4.02191,5.83339 -4.16125,5.83339 -0.13933,0 -0.17986,-0.16071 -0.0901,-0.35714 z"
     id="path3800"
     inkscape:connector-curvature="0" />
  <path
     style="fill:#ffae00;fill-opacity:1;stroke:#ffffff;stroke-width:0.14479558"
     d="m 250.08776,77.318451 c -4.53523,-3.360942 -9.82277,-6.644877 -14.91042,-9.260424 -4.72644,-2.429853 -8.28012,-3.949435 -13.68318,-5.851043 -4.22815,-1.488097 -4.32654,-1.598946 -0.76649,-0.863598 10.45626,2.1598 21.0128,6.091921 30.26664,11.273778 3.00784,1.684293 3.89114,2.252907 4.17667,2.688685 0.20458,0.312236 0.2064,0.386181 0.0161,0.657831 -0.21679,0.309516 -3.00432,2.743591 -3.1446,2.745873 -0.0418,7.24e-4 -0.92139,-0.625316 -1.95474,-1.391102 z"
     id="path4753"
     inkscape:connector-curvature="0" />
  <path
     style="fill:#ffae00;fill-opacity:1;stroke:#ffffff;stroke-width:0.14479558"
     d="m 267.22805,93.583985 c -0.35059,-0.471797 -2.95616,-3.373479 -5.15567,-5.74159 -1.05561,-1.136524 -2.04938,-2.2491 -2.20837,-2.472393 l -0.28909,-0.405986 1.90459,-1.678658 c 2.18383,-1.924777 2.38799,-1.996662 3.4678,-1.221009 0.88678,0.636994 6.04747,5.189648 6.69412,5.905415 0.92897,1.028258 0.8686,1.16217 -1.67847,3.722981 -1.21531,1.221869 -2.27413,2.219533 -2.35293,2.21703 -0.0788,-0.0025 -0.25069,-0.149108 -0.38198,-0.32579 z"
     id="path4755"
     inkscape:connector-curvature="0" />
  <path
     style="fill:#ffae00;fill-opacity:1;stroke:#ffffff;stroke-width:0.14479558"
     d="m 193.51348,292.42165 c -0.59728,-0.0264 -2.71492,-0.11868 -4.70586,-0.20515 -21.64176,-0.94001 -42.44136,-4.59026 -58.07449,-10.19185 -4.46848,-1.60112 -7.06943,-2.71864 -7.6989,-3.30788 -0.53747,-0.50312 -0.38741,-1.24343 0.6159,-3.03855 l 0.37489,-0.67076 1.59251,0.70958 c 9.51175,4.23815 23.36715,8.00041 36.98209,10.04201 13.70374,2.05492 25.08694,2.79898 40.53258,2.64941 8.01102,-0.0776 10.04952,-0.14695 15.7205,-0.53491 21.66975,-1.48249 42.05258,-5.65577 56.54268,-11.57684 1.59275,-0.65084 2.99072,-1.19545 3.1066,-1.21024 0.13983,-0.0178 0.46637,0.55752 0.97086,1.71066 l 0.76016,1.73755 -0.75504,0.3829 c -1.01879,0.51666 -6.53109,2.69583 -8.86084,3.50295 -15.7623,5.4607 -33.33498,8.55178 -55.74629,9.80592 -2.61532,0.14636 -19.0588,0.29665 -21.35735,0.1952 z"
     id="path4757"
     inkscape:connector-curvature="0" />
  <path
     style="fill:#ffae00;fill-opacity:1;stroke:#ffffff;stroke-width:0.14479558"
     d="m 191.63113,303.84618 c -2.41288,-0.0807 -9.52949,-0.49209 -12.23522,-0.70723 -17.53964,-1.39466 -33.59596,-4.43758 -46.18979,-8.75369 -5.4874,-1.88062 -10.64248,-4.14353 -10.64248,-4.67169 0,-0.38403 1.2927,-3.00301 1.52655,-3.09275 0.10241,-0.0393 1.31576,0.41826 2.69633,1.01681 10.83326,4.69676 22.61332,7.79887 37.69544,9.92658 16.51873,2.33037 35.71454,2.97809 53.79156,1.8151 16.99302,-1.09326 32.73421,-3.72408 45.76816,-7.64922 3.77539,-1.13696 6.70915,-2.17344 10.95487,-3.87031 1.77379,-0.70892 3.32383,-1.28895 3.44456,-1.28895 0.21166,0 0.83958,1.21909 1.44211,2.79986 0.22733,0.59641 0.23645,0.71988 0.0615,0.83221 -0.3755,0.24106 -5.94786,2.40626 -9.4674,3.67865 -4.36416,1.57773 -7.22349,2.44567 -12.1678,3.69349 -13.79031,3.4803 -29.20936,5.53918 -46.62418,6.22565 -3.19332,0.12588 -16.7334,0.15659 -20.05419,0.0455 z"
     id="path4759"
     inkscape:connector-curvature="0" />
</svg>
