<svg xmlns="http://www.w3.org/2000/svg" xmlns:xlink="http://www.w3.org/1999/xlink">

<symbol id="facebook" width="100%" height="100%" viewBox="0 0 24 24"><path d="M12 0c-6.627 0-12 5.373-12 12s5.373 12 12 12 12-5.373 12-12-5.373-12-12-12zm3 8h-1.35c-.538 0-.65.221-.65.778v1.222h2l-.209 2h-1.791v7h-3v-7h-2v-2h2v-2.308c0-1.769.931-2.692 3.029-2.692h1.971v3z"/></symbol>

<symbol id="github" width="100%" height="100%" viewBox="0 0 24 24"><path d="M12 0c-6.626 0-12 5.373-12 12 0 5.302 3.438 9.8 8.207 11.387.599.111.793-.261.793-.577v-2.234c-3.338.726-4.033-1.416-4.033-1.416-.546-1.387-1.333-1.756-1.333-1.756-1.089-.745.083-.729.083-.729 1.205.084 1.839 1.237 1.839 1.237 1.07 1.834 2.807 1.304 3.492.997.107-.775.418-1.305.762-1.604-2.665-.305-5.467-1.334-5.467-5.931 0-1.311.469-2.381 1.236-3.221-.124-.303-.535-1.524.117-3.176 0 0 1.008-.322 3.301 1.23.957-.266 1.983-.399 3.003-.404 1.02.005 2.047.138 3.006.404 2.291-1.552 3.297-1.23 3.297-1.23.653 1.653.242 2.874.118 3.176.77.84 1.235 1.911 1.235 3.221 0 4.609-2.807 5.624-5.479 5.921.43.372.823 1.102.823 2.222v3.293c0 .319.192.694.801.576 4.765-1.589 8.199-6.086 8.199-11.386 0-6.627-5.373-12-12-12z"/></symbol>

<symbol id="instagram" width="100%" height="100%" viewBox="0 0 24 24"><path d="M11.984 16.815c2.596 0 4.706-2.111 4.706-4.707 0-1.409-.623-2.674-1.606-3.538-.346-.303-.735-.556-1.158-.748-.593-.27-1.249-.421-1.941-.421s-1.349.151-1.941.421c-.424.194-.814.447-1.158.749-.985.864-1.608 2.129-1.608 3.538 0 2.595 2.112 4.706 4.706 4.706zm.016-8.184c1.921 0 3.479 1.557 3.479 3.478 0 1.921-1.558 3.479-3.479 3.479s-3.479-1.557-3.479-3.479c0-1.921 1.558-3.478 3.479-3.478zm5.223.369h6.777v10.278c0 2.608-2.114 4.722-4.722 4.722h-14.493c-2.608 0-4.785-2.114-4.785-4.722v-10.278h6.747c-.544.913-.872 1.969-.872 3.109 0 3.374 2.735 6.109 6.109 6.109s6.109-2.735 6.109-6.109c.001-1.14-.327-2.196-.87-3.109zm2.055-9h-12.278v5h-1v-5h-1v5h-1v-4.923c-.346.057-.682.143-1 .27v4.653h-1v-4.102c-1.202.857-2 2.246-2 3.824v3.278h7.473c1.167-1.282 2.798-2 4.511-2 1.722 0 3.351.725 4.511 2h7.505v-3.278c0-2.608-2.114-4.722-4.722-4.722zm2.722 5.265c0 .406-.333.735-.745.735h-2.511c-.411 0-.744-.329-.744-.735v-2.53c0-.406.333-.735.744-.735h2.511c.412 0 .745.329.745.735v2.53z"/></symbol>

<symbol id="linkedin" width="100%" height="100%" viewBox="0 0 24 24"><path d="M4.98 3.5c0 1.381-1.11 2.5-2.48 2.5s-2.48-1.119-2.48-2.5c0-1.38 1.11-2.5 2.48-2.5s2.48 1.12 2.48 2.5zm.02 4.5h-5v16h5v-16zm7.982 0h-4.968v16h4.969v-8.399c0-4.67 6.029-5.052 6.029 0v8.399h4.988v-10.131c0-7.88-8.922-7.593-11.018-3.714v-2.155z"/></symbol>

<symbol id="twitter" width="100%" height="100%" viewBox="0 0 24 24"><path d="M24 4.557c-.883.392-1.832.656-2.828.775 1.017-.609 1.798-1.574 2.165-2.724-.951.564-2.005.974-3.127 1.195-.897-.957-2.178-1.555-3.594-1.555-3.179 0-5.515 2.966-4.797 6.045-4.091-.205-7.719-2.165-10.148-5.144-1.29 2.213-.669 5.108 1.523 6.574-.806-.026-1.566-.247-2.229-.616-.054 2.281 1.581 4.415 3.949 4.89-.693.188-1.452.232-2.224.084.626 1.956 2.444 3.379 4.6 3.419-2.07 1.623-4.678 2.348-7.29 2.04 2.179 1.397 4.768 2.212 7.548 2.212 9.142 0 14.307-7.721 13.995-14.646.962-.695 1.797-1.562 2.457-2.549z"/></symbol>

<symbol id="youtube" width="100%" height="100%" viewBox="0 0 24 24"><path d="M19.615 3.184c-3.604-.246-11.631-.245-15.23 0-3.897.266-4.356 2.62-4.385 8.816.029 6.185.484 8.549 4.385 8.816 3.6.245 11.626.246 15.23 0 3.897-.266 4.356-2.62 4.385-8.816-.029-6.185-.484-8.549-4.385-8.816zm-10.615 12.816v-8l8 3.993-8 4.007z"/></symbol>

<symbol id="stackoverflow" width="100%" height="100%" viewBox="0 0 24 24"><path d="M15 21h-10v-2h10v2zm6-11.665l-1.621-9.335-1.993.346 1.62 9.335 1.994-.346zm-5.964 6.937l-9.746-.975-.186 2.016 9.755.879.177-1.92zm.538-2.587l-9.276-2.608-.526 1.954 9.306 2.5.496-1.846zm1.204-2.413l-8.297-4.864-1.029 1.743 8.298 4.865 1.028-1.744zm1.866-1.467l-5.339-7.829-1.672 1.14 5.339 7.829 1.672-1.14zm-2.644 4.195v8h-12v-8h-2v10h16v-10h-2z"/></symbol>

<symbol id="kaggle" width="100%" height="100%" viewBox="0 0 291.72 512"><path d="M291.72 508.98c-.51 2.01-2.51 3.01-6.01 3.01h-66.92c-4.02 0-7.51-1.75-10.52-5.27L97.74 366.14l-30.82 29.32v109.02c0 5.02-2.51 7.52-7.52 7.52H7.52C2.5 512 0 509.5 0 504.48V7.51C0 2.51 2.5 0 7.52 0H59.4c5.01 0 7.52 2.51 7.52 7.51v306l132.32-133.82c3.51-3.5 7.02-5.26 10.52-5.26h69.18c6.96 0 7.9 7.87 5.26 10.52L144.35 320.26l145.86 181.2"/></symbol>

</svg>
